<svg width="591" height="590" viewBox="0 0 591 590" fill="none" xmlns="http://www.w3.org/2000/svg">
<g opacity="0.25">
<g opacity="0.3">
<circle cx="295" cy="295" r="289.5" stroke="white"/>
<path d="M585.559 294.441C585.559 332.525 578.058 370.235 563.484 405.419C548.91 440.604 527.549 472.573 500.62 499.502C473.691 526.431 441.721 547.792 406.537 562.366C371.353 576.94 333.642 584.441 295.559 584.441" stroke="white" stroke-width="10"/>
<path d="M5.00001 295C5.00001 256.917 12.5011 219.206 27.0749 184.022C41.6488 148.837 63.0101 116.868 89.939 89.939C116.868 63.0101 148.837 41.6488 184.022 27.0749C219.206 12.5011 256.917 5.00001 295 5.00001" stroke="white" stroke-width="10"/>
</g>
<g opacity="0.1">
<circle cx="295.559" cy="294.441" r="158.19" stroke="white"/>
<path d="M454.249 294.441C454.249 315.281 450.144 335.916 442.169 355.169C434.194 374.422 422.505 391.916 407.769 406.652C393.034 421.388 375.54 433.077 356.287 441.052C337.034 449.026 316.398 453.131 295.559 453.131" stroke="white" stroke-width="15"/>
<path d="M136.869 294.441C136.869 273.602 140.974 252.966 148.949 233.713C156.924 214.46 168.613 196.966 183.348 182.231C198.084 167.495 215.578 155.806 234.831 147.831C254.084 139.856 274.719 135.752 295.559 135.752" stroke="white" stroke-width="15"/>
</g>
</g>
</svg>
